<svg width="50" height="54" viewBox="0 0 50 54" fill="white" xmlns="http://www.w3.org/2000/svg">
<g clip-path="url(#clip0_68_2)">
<path d="M49.4244 43.8322C49.4244 44.9287 49.0406 45.8607 48.2731 46.6283L42.6809 52.2204C41.9134 52.9879 40.9814 53.3717 39.8849 53.3717C38.7884 53.3717 37.8564 52.9879 37.0888 52.2204L25 40.1316L12.9112 52.2204C12.1437 52.9879 11.2116 53.3717 10.1152 53.3717C9.01867 53.3717 8.08665 52.9879 7.3191 52.2204L1.727 46.6283C0.959456 45.8607 0.575684 44.9287 0.575684 43.8322C0.575684 42.7357 0.959456 41.8037 1.727 41.0362L13.8158 28.9474L1.727 16.8585C0.959456 16.091 0.575684 15.159 0.575684 14.0625C0.575684 12.966 0.959456 12.034 1.727 11.2664L7.3191 5.67433C8.08665 4.90678 9.01867 4.52301 10.1152 4.52301C11.2116 4.52301 12.1437 4.90678 12.9112 5.67433L25 17.7631L37.0888 5.67433C37.8564 4.90678 38.7884 4.52301 39.8849 4.52301C40.9814 4.52301 41.9134 4.90678 42.6809 5.67433L48.2731 11.2664C49.0406 12.034 49.4244 12.966 49.4244 14.0625C49.4244 15.159 49.0406 16.091 48.2731 16.8585L36.1842 28.9474L48.2731 41.0362C49.0406 41.8037 49.4244 42.7357 49.4244 43.8322Z" fill="white"/>
</g>
<defs>
<clipPath id="clip0_68_2">
<rect width="50" height="53.9474" fill="white"/>
</clipPath>
</defs>
</svg>
