<svg width="32" height="32" viewBox="0 0 32 32" fill="none" xmlns="http://www.w3.org/2000/svg">
<path d="M3.026 15.032C3.204 11.761 4.295 8.884 6.235 6.778C8.35 4.48 11.568 3 15.999 3C20.429 3 23.647 4.48 25.763 6.778C27.892 9.089 28.998 12.328 28.998 15.998C28.998 19.669 27.892 22.908 25.763 25.22C23.647 27.518 20.43 28.998 15.999 28.998C11.569 28.998 8.351 27.518 6.235 25.22C6.15421 25.1323 6.07486 25.0433 5.997 24.953C5.51006 25.4481 4.88706 25.7874 4.207 25.928C4.385 26.15 4.57 26.365 4.763 26.575C7.313 29.344 11.095 30.998 15.999 30.998C20.903 30.998 24.685 29.344 27.234 26.575C29.771 23.82 30.998 20.06 30.998 15.999C30.998 11.938 29.771 8.178 27.234 5.423C24.684 2.654 20.903 1 16 1C11.095 1 7.313 2.654 4.763 5.423C2.226 8.178 1 11.938 1 15.999V16.051C1.54347 15.4956 2.25621 15.1368 3.026 15.031V15.032Z" fill="#fff"/>
<path d="M5.90999 23.166C5.76337 23.6927 5.44849 24.1571 5.01337 24.4882C4.57825 24.8193 4.04677 24.9991 3.49999 25C2.83695 25 2.20107 24.7366 1.73223 24.2677C1.26339 23.7989 0.999993 23.163 0.999993 22.5V18.5C0.990538 18.1657 1.04821 17.833 1.16959 17.5214C1.29098 17.2098 1.47361 16.9257 1.70669 16.686C1.93977 16.4462 2.21857 16.2556 2.52659 16.1255C2.83461 15.9953 3.1656 15.9283 3.49999 15.9283C3.83438 15.9283 4.16537 15.9953 4.4734 16.1255C4.78142 16.2556 5.06021 16.4462 5.29329 16.686C5.52638 16.9257 5.70901 17.2098 5.83039 17.5214C5.95178 17.833 6.00945 18.1657 5.99999 18.5V22.5C5.99999 22.73 5.96899 22.954 5.90999 23.166ZM11.007 6.41597V6.41697L11.004 6.43297L10.987 6.50797C10.8734 6.93827 10.6786 7.34287 10.413 7.69997C9.93599 8.33497 9.07999 8.99997 7.49999 8.99997C7.36738 8.99997 7.24021 9.05265 7.14644 9.14642C7.05267 9.24019 6.99999 9.36737 6.99999 9.49997C6.99999 9.63258 7.05267 9.75976 7.14644 9.85353C7.24021 9.9473 7.36738 9.99997 7.49999 9.99997C9.41999 9.99997 10.563 9.16497 11.213 8.29997C11.5585 7.83606 11.8112 7.30974 11.957 6.74997C11.9665 6.71149 11.9751 6.67282 11.983 6.63397L11.99 6.59997L11.992 6.58897V6.58497L11.993 6.58297C12.0151 6.45222 11.9844 6.31803 11.9076 6.20991C11.8308 6.1018 11.7142 6.02862 11.5835 6.00647C11.4527 5.98433 11.3185 6.01503 11.2104 6.09183C11.1023 6.16862 11.0291 6.28522 11.007 6.41597V6.41597ZM20.996 6.43297L20.993 6.41697C20.9684 6.28879 20.8946 6.17533 20.7874 6.10082C20.6802 6.02631 20.5482 5.99665 20.4195 6.0182C20.2907 6.03974 20.1755 6.11077 20.0984 6.21611C20.0214 6.32145 19.9886 6.45276 20.007 6.58197C19.965 6.43297 20.007 6.58297 20.007 6.58297V6.58497L20.008 6.58897L20.01 6.59897L20.012 6.61297L20.017 6.63397C20.023 6.66297 20.031 6.70197 20.043 6.74997C20.1888 7.30974 20.4415 7.83606 20.787 8.29997C21.437 9.16497 22.58 9.99997 24.5 9.99997C24.6326 9.99997 24.7598 9.9473 24.8535 9.85353C24.9473 9.75976 25 9.63258 25 9.49997C25 9.36737 24.9473 9.24019 24.8535 9.14642C24.7598 9.05265 24.6326 8.99997 24.5 8.99997C22.92 8.99997 22.063 8.33497 21.587 7.69997C21.3214 7.34287 21.1266 6.93827 21.013 6.50797C21.0068 6.4831 21.0011 6.4581 20.996 6.43297V6.43297ZM14 15C14 15.3939 13.9224 15.784 13.7716 16.148C13.6209 16.512 13.3999 16.8427 13.1213 17.1213C12.8427 17.3999 12.512 17.6208 12.148 17.7716C11.7841 17.9224 11.394 18 11 18C10.606 18 10.2159 17.9224 9.85194 17.7716C9.48797 17.6208 9.15725 17.3999 8.87867 17.1213C8.6001 16.8427 8.37912 16.512 8.22835 16.148C8.07759 15.784 7.99999 15.3939 7.99999 15C7.99999 14.2043 8.31606 13.4413 8.87867 12.8787C9.44128 12.316 10.2043 12 11 12C11.7956 12 12.5587 12.316 13.1213 12.8787C13.6839 13.4413 14 14.2043 14 15V15ZM21 18C21.7956 18 22.5587 17.6839 23.1213 17.1213C23.6839 16.5587 24 15.7956 24 15C24 14.2043 23.6839 13.4413 23.1213 12.8787C22.5587 12.316 21.7956 12 21 12C20.2043 12 19.4413 12.316 18.8787 12.8787C18.3161 13.4413 18 14.2043 18 15C18 15.7956 18.3161 16.5587 18.8787 17.1213C19.4413 17.6839 20.2043 18 21 18ZM12.293 23.707C12.1055 23.5194 12.0002 23.2651 12.0002 23C12.0002 22.7348 12.1055 22.4805 12.293 22.293L12.294 22.291L12.296 22.29L12.299 22.287L12.307 22.279L12.327 22.259L12.388 22.204C12.4526 22.1482 12.5194 22.0948 12.588 22.044C12.755 21.918 12.993 21.76 13.303 21.605C13.925 21.295 14.827 21 16 21C17.173 21 18.075 21.294 18.697 21.605C19.007 21.76 19.245 21.918 19.413 22.044C19.5031 22.1113 19.5899 22.1831 19.673 22.259L19.693 22.279L19.701 22.287L19.704 22.29L19.706 22.291L19.707 22.293C19.8909 22.4802 19.9939 22.7322 19.9937 22.9947C19.9935 23.2572 19.8901 23.509 19.7058 23.6959C19.5215 23.8828 19.2711 23.9898 19.0087 23.9937C18.7463 23.9977 18.4928 23.8983 18.303 23.717L18.295 23.71C18.1429 23.5874 17.9779 23.4818 17.803 23.395C17.425 23.204 16.827 23 16 23C15.173 23 14.575 23.206 14.197 23.394C14.022 23.4811 13.857 23.5871 13.705 23.71L13.697 23.717C13.5086 23.9001 13.2557 24.0017 12.9929 23.9998C12.7302 23.9979 12.4788 23.8927 12.293 23.707V23.707Z" fill="#fff"/>
</svg>
