<svg width="24" height="24" viewBox="0 0 24 24" fill="none" xmlns="http://www.w3.org/2000/svg">
<path d="M14 18C12.225 17.9996 10.5012 17.4054 9.103 16.312L4.707 20.708L3.293 19.294L7.689 14.898C6.595 13.4997 6.00043 11.7754 6 10C6 5.589 9.589 2 14 2C18.411 2 22 5.589 22 10C22 14.411 18.411 18 14 18ZM14 4C10.691 4 8 6.691 8 10C8 13.309 10.691 16 14 16C17.309 16 20 13.309 20 10C20 6.691 17.309 4 14 4Z" fill="#118cd9"/>
<path d="M12.588 8.58603C12.209 8.96603 12 9.46803 12 10H10C9.99912 9.47445 10.1024 8.95392 10.3039 8.46851C10.5054 7.9831 10.8012 7.54245 11.174 7.17202C12.688 5.66002 15.313 5.66002 16.826 7.17202L15.414 8.58803C14.654 7.83003 13.344 7.83203 12.588 8.58603Z" fill="#118cd9"/>
</svg>
